{"glyphs":{":":{"x_min":0,"x_max":215,"ha":215,"o":"m 38 142 l 177 142 l 177 0 l 38 0 z m 38 480 l 177 480 l 177 338 l 38 338 z m 108 520 z"},"$":{"x_min":0,"x_max":502,"ha":502,"o":"m 297 34 l 297 -60 l 194 -60 l 194 32 q 119 43 76 94 q 33 144 29 227 l 144 227 q 150 177 174 156 q 197 136 244 136 q 330 136 330 214 q 330 249 313 268 q 296 286 258 293 l 209 302 q 125 317 84 360 q 44 402 44 477 q 44 551 84 599 q 124 647 194 661 l 194 740 l 297 740 l 297 660 q 362 646 400 600 q 438 553 443 479 l 325 479 q 321 522 301 542 q 281 561 241 561 q 204 561 184 542 q 164 522 164 486 q 164 454 183 436 q 202 418 245 410 l 302 399 q 377 385 414 342 q 452 299 452 224 q 452 144 411 96 q 370 48 297 34 z m 132 690 z"},"?":{"x_min":0,"x_max":451,"ha":451,"o":"m 157 244 q 157 283 164 306 q 172 329 198 363 l 253 434 q 273 460 281 478 q 289 497 289 518 q 289 550 272 568 q 254 587 218 587 q 182 587 166 568 q 149 548 148 508 l 27 508 q 29 602 79 651 q 129 700 222 700 q 280 700 324 677 q 369 654 393 614 q 417 573 417 522 q 417 486 405 456 q 393 425 366 390 l 308 312 q 292 291 286 276 q 281 260 281 235 l 281 193 l 157 193 z m 153 126 l 284 126 l 284 0 l 153 0 z"},"<":{"x_min":0,"x_max":529,"ha":529,"o":"m 48 223 l 48 326 l 480 495 l 480 380 l 202 274 l 480 169 l 480 53 z"},"'":{"x_min":0,"x_max":193,"ha":193,"o":"m 38 690 l 155 690 l 155 392 l 38 392 z"},"=":{"x_min":0,"x_max":529,"ha":529,"o":"m 48 437 l 480 437 l 480 324 l 48 324 z m 48 228 l 480 228 l 480 115 l 48 115 z"},"a":{"x_min":0,"x_max":501,"ha":501,"o":"m 447 342 l 447 0 l 327 0 l 327 45 q 301 18 274 6 q 246 -6 204 -6 q 124 -6 80 37 q 36 80 36 156 q 36 226 83 266 q 130 307 214 307 l 324 307 l 324 348 q 324 431 241 431 q 206 431 186 414 q 165 396 165 367 l 165 364 l 50 364 l 50 368 q 50 441 102 484 q 154 526 242 526 q 341 526 394 480 q 447 433 447 342 z m 324 185 l 324 222 l 234 222 q 156 222 156 159 q 156 94 232 94 q 281 94 302 116 q 324 139 324 185 z"},"L":{"x_min":0,"x_max":516,"ha":516,"o":"m 59 690 l 190 690 l 190 114 l 492 114 l 492 0 l 59 0 z"},"3":{"x_min":0,"x_max":504,"ha":504,"o":"m 45 167 l 45 188 l 167 188 l 167 173 q 167 137 188 118 q 208 100 247 100 q 284 100 306 124 q 327 148 327 189 l 327 207 q 327 252 304 276 q 281 300 237 300 l 202 300 l 202 411 l 236 411 q 274 411 295 433 q 316 455 316 494 l 316 509 q 316 547 296 568 q 277 590 243 590 q 208 590 189 570 q 170 551 170 517 l 170 500 l 50 500 l 50 517 q 50 604 102 652 q 155 701 248 701 q 339 701 391 652 q 443 602 443 519 l 443 504 q 443 459 422 424 q 401 388 362 367 q 407 348 430 307 q 454 266 454 208 l 454 189 q 454 128 428 83 q 402 38 355 14 q 308 -11 249 -11 q 152 -11 98 36 q 45 82 45 167 z"},";":{"x_min":0,"x_max":215,"ha":215,"o":"m 38 480 l 177 480 l 177 338 l 38 338 z m 58 137 l 175 137 l 175 -63 l 58 -162 z m 104 520 z"},"J":{"x_min":0,"x_max":331,"ha":331,"o":"m 24 115 l 78 115 q 109 115 122 130 q 134 144 134 180 l 134 690 l 266 690 l 266 158 q 266 82 224 41 q 183 0 108 0 l 24 0 z"},"V":{"x_min":0,"x_max":554,"ha":554,"o":"m 4 690 l 141 690 l 277 213 l 413 690 l 550 690 l 329 0 l 224 0 z"},"\"":{"x_min":0,"x_max":381,"ha":381,"o":"m 38 690 l 155 690 l 155 392 l 38 392 z m 227 690 l 343 690 l 343 392 l 227 392 z"},"7":{"x_min":0,"x_max":457,"ha":457,"o":"m 427 690 l 427 576 l 217 0 l 85 0 l 299 576 l 30 576 l 30 690 z"},"S":{"x_min":0,"x_max":548,"ha":548,"o":"m 25 210 l 149 210 q 156 153 186 130 q 215 106 273 106 q 384 106 384 197 q 384 238 362 260 q 340 281 292 289 l 227 300 q 40 331 40 492 q 40 588 104 644 q 167 700 272 700 q 374 700 434 646 q 493 592 501 494 l 375 494 q 372 544 346 567 q 320 590 270 590 q 219 590 193 566 q 167 543 167 502 q 167 466 190 445 q 213 424 262 415 l 335 402 q 513 370 513 208 q 513 104 446 49 q 380 -6 267 -6 q 156 -6 94 50 q 32 105 25 210 z"},"}":{"x_min":0,"x_max":360,"ha":360,"o":"m 45 16 l 80 16 q 123 16 123 60 l 123 203 q 123 260 138 288 q 154 316 194 330 q 154 343 138 372 q 123 400 123 457 l 123 596 q 123 640 80 640 l 45 640 l 45 740 l 116 740 q 176 740 208 708 q 239 677 239 618 l 239 463 q 239 421 256 402 q 274 383 315 383 l 315 277 q 274 277 256 258 q 239 239 239 197 l 239 39 q 239 -21 208 -52 q 176 -84 116 -84 l 45 -84 z"},"Z":{"x_min":0,"x_max":505,"ha":505,"o":"m 478 115 l 478 0 l 30 0 l 30 115 l 327 576 l 36 576 l 36 690 l 469 690 l 469 576 l 173 115 z"},"x":{"x_min":0,"x_max":459,"ha":459,"o":"m 321 0 l 225 164 l 139 0 l 9 0 l 165 268 l 18 520 l 148 520 l 234 372 l 311 520 l 441 520 l 292 272 l 450 0 z"},")":{"x_min":0,"x_max":310,"ha":310,"o":"m 142 328 q 142 434 118 540 q 93 645 45 740 l 135 740 q 265 553 265 328 q 265 107 136 -84 l 45 -84 q 92 11 117 117 q 142 223 142 328 z"},"&":{"x_min":0,"x_max":598,"ha":598,"o":"m 530 107 l 552 107 l 552 0 l 504 0 q 469 0 448 13 q 427 26 400 62 l 396 67 q 359 25 319 7 q 279 -11 228 -11 q 141 -11 93 39 q 45 89 45 171 q 45 228 73 277 q 101 326 168 381 q 127 438 111 472 q 95 505 95 541 q 95 587 117 624 q 139 660 178 680 q 216 701 264 701 q 313 701 352 680 q 390 659 411 622 q 432 586 432 542 q 432 496 407 456 q 382 416 319 363 l 406 246 l 475 332 l 553 263 l 470 159 l 489 133 q 509 107 530 107 z m 211 546 q 211 527 220 508 q 228 489 256 450 q 293 481 306 502 q 318 522 318 546 q 318 572 303 588 q 288 605 265 605 q 241 605 226 589 q 211 573 211 546 z m 333 154 l 232 292 q 194 259 178 233 q 163 207 163 180 q 163 141 183 118 q 203 96 238 96 q 263 96 284 108 q 305 121 333 154 z"},"_":{"x_min":0,"x_max":500,"ha":500,"o":"m 0 -40 l 500 -40 l 500 -121 l 0 -121 z"},"v":{"x_min":0,"x_max":481,"ha":481,"o":"m 9 520 l 140 520 l 241 190 l 341 520 l 472 520 l 291 0 l 189 0 z"},"O":{"x_min":0,"x_max":600,"ha":600,"o":"m 50 267 l 50 425 q 50 700 301 700 q 416 700 483 636 q 550 571 550 425 l 550 267 q 550 121 482 56 q 413 -8 297 -8 q 50 -8 50 267 z m 419 269 l 419 418 q 419 506 390 546 q 361 585 301 585 q 238 585 210 546 q 182 508 182 418 l 182 269 q 182 184 210 146 q 238 109 301 109 q 361 109 390 148 q 419 186 419 269 z"},"(":{"x_min":0,"x_max":310,"ha":310,"o":"m 45 328 q 45 553 175 740 l 265 740 q 217 645 192 540 q 168 434 168 328 q 168 223 193 117 q 218 11 265 -84 l 174 -84 q 45 107 45 328 z"},"C":{"x_min":0,"x_max":600,"ha":600,"o":"m 50 267 l 50 425 q 50 700 303 700 q 416 700 483 640 q 550 580 550 471 l 550 464 l 419 464 l 419 470 q 419 523 388 554 q 358 585 302 585 q 239 585 210 546 q 182 507 182 418 l 182 269 q 182 185 212 147 q 241 109 304 109 q 360 109 390 139 q 419 169 419 221 l 419 229 l 548 229 l 548 222 q 548 111 482 52 q 416 -8 301 -8 q 50 -8 50 267 z"},"W":{"x_min":0,"x_max":833,"ha":833,"o":"m 829 690 l 664 0 l 544 0 l 418 511 l 293 0 l 174 0 l 4 690 l 135 690 l 239 203 l 340 690 l 503 690 l 609 203 l 707 690 z"},"A":{"x_min":0,"x_max":606,"ha":606,"o":"m 421 134 l 184 134 l 142 0 l 4 0 l 249 690 l 356 690 l 602 0 l 463 0 z m 386 243 l 302 508 l 219 243 z"},"f":{"x_min":0,"x_max":334,"ha":334,"o":"m 214 556 l 214 520 l 307 520 l 307 433 l 214 433 l 214 0 l 91 0 l 91 433 l 36 433 l 36 520 l 91 520 l 91 551 q 91 617 128 654 q 166 690 235 690 l 307 690 l 307 606 l 266 606 q 239 606 226 594 q 214 581 214 556 z"},"Q":{"x_min":0,"x_max":600,"ha":600,"o":"m 456 35 l 529 -99 l 429 -154 l 348 -5 q 324 -8 297 -8 q 50 -8 50 267 l 50 425 q 50 700 301 700 q 416 700 483 636 q 550 571 550 425 l 550 267 q 550 101 456 35 z m 301 109 q 361 109 390 148 q 419 186 419 269 l 419 418 q 419 506 390 546 q 361 585 301 585 q 238 585 210 546 q 182 508 182 418 l 182 269 q 182 184 210 146 q 238 109 301 109 z"},"w":{"x_min":0,"x_max":736,"ha":736,"o":"m 9 520 l 140 520 l 221 190 l 321 520 l 414 520 l 514 190 l 595 520 l 727 520 l 574 0 l 469 0 l 367 337 l 266 0 l 161 0 z"},"-":{"x_min":0,"x_max":365,"ha":365,"o":"m 45 403 l 320 403 l 320 288 l 45 288 z"},"E":{"x_min":0,"x_max":532,"ha":532,"o":"m 190 576 l 190 405 l 452 405 l 452 291 l 190 291 l 190 114 l 497 114 l 497 0 l 59 0 l 59 690 l 497 690 l 497 576 z"},"s":{"x_min":0,"x_max":474,"ha":474,"o":"m 36 154 l 36 158 l 152 158 l 152 156 q 152 127 176 110 q 199 94 237 94 q 278 94 301 108 q 324 123 324 152 q 324 176 307 189 q 290 202 250 208 l 195 217 q 117 230 80 265 q 43 300 43 365 q 43 439 98 482 q 152 526 237 526 q 295 526 340 506 q 384 487 408 452 q 433 418 433 375 l 433 369 l 318 369 l 318 372 q 318 399 296 414 q 275 429 237 429 q 199 429 179 414 q 159 399 159 374 q 159 351 174 338 q 190 325 225 320 l 286 311 q 364 300 403 263 q 442 226 442 161 q 442 81 384 38 q 326 -6 233 -6 q 144 -6 90 38 q 36 81 36 154 z"},">":{"x_min":0,"x_max":529,"ha":529,"o":"m 48 169 l 326 274 l 48 380 l 48 495 l 480 326 l 480 223 l 48 53 z"},"l":{"x_min":0,"x_max":287,"ha":287,"o":"m 54 158 l 54 690 l 178 690 l 178 166 q 178 134 190 120 q 201 107 227 107 l 269 107 l 269 0 l 212 0 q 137 0 96 41 q 54 82 54 158 z"},"8":{"x_min":0,"x_max":525,"ha":525,"o":"m 50 190 l 50 213 q 50 260 72 300 q 94 339 134 362 q 102 381 82 416 q 63 450 63 495 l 63 513 q 63 564 88 607 q 112 650 157 676 q 202 701 263 701 q 324 701 370 676 q 415 650 439 607 q 463 564 463 513 l 463 495 q 463 451 443 416 q 423 381 392 362 q 432 338 454 298 q 475 259 475 214 l 475 191 q 475 130 448 84 q 420 38 372 14 q 323 -11 262 -11 q 201 -11 153 14 q 105 38 78 84 q 50 130 50 190 z m 337 494 l 337 513 q 337 546 316 568 q 296 590 263 590 q 230 590 210 568 q 189 546 189 513 l 189 494 q 189 458 209 436 q 229 414 263 414 q 297 414 317 436 q 337 459 337 494 z m 349 192 l 349 216 q 349 256 326 281 q 302 306 263 306 q 225 306 201 281 q 177 256 177 216 l 177 192 q 177 151 200 126 q 223 100 263 100 q 302 100 326 125 q 349 150 349 192 z"},"\\":{"x_min":0,"x_max":405,"ha":405,"o":"m 45 695 l 148 695 l 360 -10 l 257 -10 z"},"e":{"x_min":0,"x_max":517,"ha":517,"o":"m 168 223 l 168 209 q 168 151 194 126 q 220 101 268 101 q 305 101 326 116 q 347 132 349 160 l 350 163 l 468 163 l 468 158 q 468 84 413 39 q 358 -6 263 -6 q 163 -6 104 52 q 45 109 45 229 l 45 292 q 45 409 102 468 q 159 526 259 526 q 357 526 414 467 q 472 408 472 292 l 472 223 z m 168 311 l 168 308 l 348 308 l 348 321 q 348 420 259 420 q 215 420 192 395 q 168 370 168 311 z"},"b":{"x_min":0,"x_max":515,"ha":515,"o":"m 175 48 l 175 0 l 54 0 l 54 690 l 178 690 l 178 467 q 221 526 294 526 q 372 526 421 473 q 470 420 470 312 l 470 209 q 470 101 421 48 q 372 -6 298 -6 q 219 -6 175 48 z m 346 213 l 346 307 q 346 365 324 390 q 301 416 263 416 q 223 416 200 388 q 177 360 177 307 l 177 213 q 177 160 200 132 q 224 104 266 104 q 346 104 346 213 z"},"%":{"x_min":0,"x_max":904,"ha":904,"o":"m 40 413 l 40 555 q 40 625 74 660 q 109 696 175 696 q 244 696 276 661 q 309 626 309 555 l 309 413 q 309 339 276 302 q 244 264 175 264 q 105 264 72 302 q 40 339 40 413 z m 595 695 l 694 695 l 308 0 l 210 0 z m 206 418 l 206 542 q 206 580 200 594 q 195 608 175 608 q 155 608 149 594 q 143 580 143 542 l 143 418 q 143 381 148 367 q 154 353 175 353 q 196 353 201 366 q 206 379 206 418 z m 594 143 l 594 285 q 594 355 628 390 q 663 426 729 426 q 798 426 830 391 q 863 356 863 285 l 863 143 q 863 69 830 32 q 798 -6 729 -6 q 659 -6 626 32 q 594 69 594 143 z m 760 148 l 760 272 q 760 310 754 324 q 749 338 729 338 q 709 338 703 324 q 697 310 697 272 l 697 148 q 697 111 702 97 q 708 83 729 83 q 750 83 755 96 q 760 109 760 148 z"},"m":{"x_min":0,"x_max":808,"ha":808,"o":"m 54 520 l 175 520 l 175 473 q 198 498 230 512 q 263 526 298 526 q 385 526 431 461 q 491 526 578 526 q 661 526 708 476 q 754 426 754 339 l 754 0 l 630 0 l 630 324 q 630 369 608 392 q 585 416 549 416 q 511 416 488 392 q 466 367 466 327 l 466 0 l 342 0 l 342 324 q 342 369 320 392 q 297 416 261 416 q 224 416 201 392 q 178 368 178 324 l 178 0 l 54 0 z"},"#":{"x_min":0,"x_max":539,"ha":539,"o":"m 431 406 l 417 296 l 496 296 l 496 204 l 405 204 l 378 0 l 274 0 l 301 204 l 195 204 l 168 0 l 65 0 l 92 204 l 18 204 l 18 296 l 104 296 l 119 406 l 43 406 l 43 498 l 131 498 l 156 690 l 259 690 l 234 498 l 340 498 l 365 690 l 468 690 l 443 498 l 521 498 l 521 406 z m 328 406 l 222 406 l 207 296 l 313 296 z"},",":{"x_min":0,"x_max":193,"ha":193,"o":"m 38 137 l 155 137 l 155 -63 l 38 -162 z"},"n":{"x_min":0,"x_max":520,"ha":520,"o":"m 54 520 l 175 520 l 175 473 q 198 499 230 512 q 263 526 298 526 q 378 526 422 476 q 466 426 466 339 l 466 0 l 342 0 l 342 324 q 342 368 320 392 q 298 416 261 416 q 225 416 202 392 q 178 368 178 324 l 178 0 l 54 0 z"},"h":{"x_min":0,"x_max":520,"ha":520,"o":"m 54 690 l 178 690 l 178 474 q 201 500 232 513 q 263 526 298 526 q 378 526 422 476 q 466 427 466 339 l 466 0 l 342 0 l 342 324 q 342 369 320 392 q 298 416 261 416 q 225 416 202 392 q 178 368 178 324 l 178 0 l 54 0 z"},"z":{"x_min":0,"x_max":455,"ha":455,"o":"m 410 416 l 180 104 l 410 104 l 410 0 l 45 0 l 45 104 l 275 416 l 45 416 l 45 520 l 410 520 z"},"B":{"x_min":0,"x_max":598,"ha":598,"o":"m 548 198 q 548 104 492 52 q 436 0 336 0 l 59 0 l 59 690 l 325 690 q 426 690 482 640 q 539 590 539 498 q 539 452 516 414 q 493 375 452 355 q 499 334 524 294 q 548 254 548 198 z m 190 576 l 190 408 l 315 408 q 360 408 384 430 q 407 451 407 490 q 407 532 384 554 q 360 576 315 576 z m 417 207 q 417 248 394 271 q 370 294 323 294 l 190 294 l 190 114 l 323 114 q 370 114 394 138 q 417 163 417 207 z"},"K":{"x_min":0,"x_max":610,"ha":610,"o":"m 281 307 l 190 193 l 190 0 l 59 0 l 59 690 l 190 690 l 190 368 l 429 690 l 586 690 l 365 413 l 604 0 l 452 0 z"},"R":{"x_min":0,"x_max":600,"ha":600,"o":"m 288 280 l 190 280 l 190 0 l 59 0 l 59 690 l 321 690 q 422 690 482 634 q 542 579 542 484 q 542 416 510 369 q 479 322 420 300 l 570 0 l 419 0 z m 190 389 l 314 389 q 360 389 386 414 q 411 438 411 484 q 411 526 385 551 q 359 576 314 576 l 190 576 z"},"T":{"x_min":0,"x_max":496,"ha":496,"o":"m 490 576 l 314 576 l 314 0 l 182 0 l 182 576 l 6 576 l 6 690 l 490 690 z"},"P":{"x_min":0,"x_max":567,"ha":567,"o":"m 543 473 q 543 377 482 320 q 422 262 317 262 l 190 262 l 190 0 l 59 0 l 59 690 l 317 690 q 422 690 482 632 q 543 574 543 473 z m 412 473 q 412 523 386 550 q 359 576 311 576 l 190 576 l 190 377 l 311 377 q 358 377 385 402 q 412 427 412 473 z"},"|":{"x_min":0,"x_max":295,"ha":295,"o":"m 90 740 l 205 740 l 205 -84 l 90 -84 z"},"t":{"x_min":0,"x_max":352,"ha":352,"o":"m 220 433 l 220 158 q 220 105 271 105 l 310 105 l 310 0 l 251 0 q 180 0 138 40 q 97 81 97 150 l 97 433 l 25 433 l 25 520 l 97 520 l 97 622 l 220 665 l 220 520 l 320 520 l 320 433 z"},"M":{"x_min":0,"x_max":732,"ha":732,"o":"m 673 690 l 673 0 l 542 0 l 542 409 l 411 133 l 323 133 l 190 412 l 190 0 l 59 0 l 59 690 l 190 690 l 367 309 l 542 690 z"},"g":{"x_min":0,"x_max":514,"ha":514,"o":"m 52 -13 l 171 -13 q 176 -37 198 -52 q 219 -66 254 -66 q 339 -66 339 30 l 339 94 q 296 40 217 40 q 142 40 94 94 q 45 147 45 255 l 45 312 q 45 420 92 473 q 140 526 216 526 q 294 526 337 467 l 337 520 l 460 520 l 460 38 q 460 -55 404 -110 q 348 -164 249 -164 q 158 -164 108 -124 q 57 -84 52 -13 z m 337 259 l 337 307 q 337 360 314 388 q 292 416 252 416 q 169 416 169 307 l 169 259 q 169 150 249 150 q 291 150 314 178 q 337 206 337 259 z"},"j":{"x_min":0,"x_max":241,"ha":241,"o":"m 56 690 l 182 690 l 182 591 l 56 591 z m -33 -49 l 9 -49 q 35 -49 47 -35 q 59 -21 59 10 l 59 520 l 182 520 l 182 2 q 182 -74 141 -115 q 100 -156 25 -156 l -33 -156 z"},"i":{"x_min":0,"x_max":241,"ha":241,"o":"m 59 520 l 182 520 l 182 0 l 59 0 z m 57 690 l 183 690 l 183 591 l 57 591 z"},"y":{"x_min":0,"x_max":482,"ha":482,"o":"m 473 520 l 276 -45 q 256 -102 218 -128 q 181 -154 119 -154 l 76 -154 l 76 -43 l 115 -43 q 145 -43 160 -32 q 174 -22 183 7 l 185 14 l 9 520 l 140 520 l 242 193 l 346 520 z"},"@":{"x_min":0,"x_max":873,"ha":873,"o":"m 45 246 l 45 316 q 45 429 94 516 q 144 602 233 650 q 322 698 437 698 q 550 698 639 650 q 728 603 778 517 q 828 431 828 321 l 828 251 q 828 155 780 104 q 732 54 659 54 q 614 54 582 71 q 550 88 533 119 q 501 54 405 54 q 254 54 254 235 l 254 323 q 254 409 290 457 q 325 505 398 505 q 434 505 462 491 q 489 477 502 454 l 502 494 l 611 494 l 611 209 q 611 177 624 162 q 638 146 660 146 q 688 146 702 170 q 716 195 716 250 l 716 320 q 716 405 682 468 q 649 530 586 564 q 524 598 437 598 q 306 598 232 523 q 157 448 157 318 l 157 247 q 157 162 190 98 q 224 34 287 -1 q 350 -36 437 -36 q 497 -36 545 -24 q 593 -11 644 15 l 688 -70 q 630 -104 570 -120 q 510 -136 437 -136 q 322 -136 233 -88 q 144 -40 94 46 q 45 133 45 246 z m 500 238 l 500 322 q 500 411 434 411 q 399 411 382 388 q 366 364 366 323 l 366 241 q 366 196 382 172 q 398 148 434 148 q 500 148 500 238 z"},".":{"x_min":0,"x_max":215,"ha":215,"o":"m 38 142 l 177 142 l 177 0 l 38 0 z"},"p":{"x_min":0,"x_max":515,"ha":515,"o":"m 54 520 l 175 520 l 175 467 q 221 526 294 526 q 372 526 421 473 q 470 420 470 312 l 470 209 q 470 101 421 48 q 372 -6 298 -6 q 221 -6 178 47 l 178 -156 l 54 -156 z m 346 213 l 346 307 q 346 365 324 390 q 301 416 263 416 q 223 416 200 388 q 177 360 177 307 l 177 213 q 177 160 200 132 q 224 104 266 104 q 346 104 346 213 z"},"X":{"x_min":0,"x_max":593,"ha":593,"o":"m 219 359 l 20 690 l 175 690 l 297 466 l 417 690 l 566 690 l 371 364 l 589 0 l 433 0 l 294 255 l 153 0 l 4 0 z"},"*":{"x_min":0,"x_max":377,"ha":377,"o":"m 154 486 l 76 441 l 45 495 l 125 541 l 45 587 l 76 641 l 154 597 l 154 690 l 223 690 l 223 596 l 301 641 l 331 587 l 251 541 l 332 495 l 300 441 l 223 485 l 223 389 l 154 389 z"},"Y":{"x_min":0,"x_max":541,"ha":541,"o":"m 336 284 l 336 0 l 205 0 l 205 283 l 4 690 l 147 690 l 270 410 l 393 690 l 537 690 z"},"c":{"x_min":0,"x_max":505,"ha":505,"o":"m 45 212 l 45 309 q 45 420 102 473 q 158 526 256 526 q 352 526 406 477 q 460 428 460 341 l 460 331 l 342 331 l 342 337 q 342 374 320 395 q 297 416 258 416 q 168 416 168 307 l 168 213 q 168 154 192 129 q 215 104 258 104 q 297 104 320 124 q 342 144 342 180 l 342 186 l 460 186 l 460 179 q 460 93 406 44 q 352 -6 256 -6 q 158 -6 102 47 q 45 100 45 212 z"},"!":{"x_min":0,"x_max":249,"ha":249,"o":"m 54 690 l 195 690 l 171 230 l 78 230 z m 59 130 l 190 130 l 190 0 l 59 0 z"},"/":{"x_min":0,"x_max":405,"ha":405,"o":"m 256 695 l 360 695 l 148 -10 l 45 -10 z"},"[":{"x_min":0,"x_max":315,"ha":315,"o":"m 59 741 l 270 741 l 270 626 l 183 626 l 183 31 l 270 31 l 270 -84 l 59 -84 z"},"6":{"x_min":0,"x_max":516,"ha":516,"o":"m 45 193 l 45 224 q 45 265 56 302 q 68 339 90 383 l 248 690 l 386 690 l 243 411 q 265 421 293 421 q 374 421 422 370 q 471 318 471 229 l 471 197 q 471 99 412 44 q 354 -11 258 -11 q 158 -11 102 43 q 45 97 45 193 z m 340 191 l 340 222 q 340 265 318 288 q 296 312 258 312 q 220 312 198 288 q 177 265 177 223 l 177 190 q 177 148 198 124 q 220 100 258 100 q 296 100 318 124 q 340 148 340 191 z"},"r":{"x_min":0,"x_max":358,"ha":358,"o":"m 54 520 l 175 520 l 175 466 q 194 499 226 515 q 258 531 298 531 q 321 531 340 527 l 340 411 q 305 422 278 422 q 233 422 206 394 q 178 365 178 312 l 178 0 l 54 0 z"},"2":{"x_min":0,"x_max":493,"ha":493,"o":"m 48 104 l 277 401 q 315 452 315 498 l 315 512 q 315 548 296 569 q 276 590 243 590 q 210 590 191 568 q 172 546 172 507 l 172 491 l 45 491 l 45 515 q 45 569 70 611 q 94 653 140 677 q 186 701 248 701 q 308 701 354 676 q 399 651 424 609 q 448 567 448 516 l 448 499 q 448 454 432 416 q 416 378 385 338 l 213 115 l 448 115 l 448 0 l 48 0 z"},"{":{"x_min":0,"x_max":360,"ha":360,"o":"m 121 39 l 121 197 q 121 239 104 258 q 87 277 45 277 l 45 383 q 87 383 104 402 q 121 421 121 463 l 121 618 q 121 677 153 708 q 185 740 245 740 l 315 740 l 315 640 l 280 640 q 238 640 238 596 l 238 457 q 238 400 222 372 q 207 343 167 330 q 207 316 222 288 q 238 260 238 203 l 238 60 q 238 16 280 16 l 315 16 l 315 -84 l 245 -84 q 185 -84 153 -52 q 121 -21 121 39 z"},"9":{"x_min":0,"x_max":516,"ha":516,"o":"m 273 279 q 251 269 223 269 q 142 269 94 320 q 45 372 45 461 l 45 493 q 45 591 104 646 q 162 701 258 701 q 358 701 414 647 q 471 593 471 497 l 471 466 q 471 426 460 388 q 448 351 426 307 l 268 0 l 130 0 z m 339 467 l 339 500 q 339 542 318 566 q 296 590 258 590 q 220 590 198 566 q 176 542 176 499 l 176 468 q 176 425 198 402 q 220 378 258 378 q 296 378 318 402 q 339 425 339 467 z"}," ":{"x_min":0,"x_max":229,"ha":229,"o":""},"I":{"x_min":0,"x_max":261,"ha":261,"o":"m 65 690 l 196 690 l 196 0 l 65 0 z"},"H":{"x_min":0,"x_max":609,"ha":609,"o":"m 550 690 l 550 0 l 419 0 l 419 292 l 190 292 l 190 0 l 59 0 l 59 690 l 190 690 l 190 406 l 419 406 l 419 690 z"},"4":{"x_min":0,"x_max":521,"ha":521,"o":"m 486 110 l 430 110 l 430 0 l 299 0 l 299 110 l 35 110 l 35 225 l 232 690 l 363 690 l 166 225 l 299 225 l 299 387 l 430 387 l 430 225 l 486 225 z"},"~":{"x_min":0,"x_max":529,"ha":529,"o":"m 251 228 q 227 241 214 246 q 201 252 187 252 q 166 252 150 239 q 135 226 119 196 l 39 245 q 63 298 100 326 q 137 354 182 354 q 208 354 229 346 q 250 338 278 322 q 300 310 314 304 q 328 298 343 298 q 365 298 380 311 q 396 324 411 354 l 491 305 q 468 252 430 224 q 393 195 347 195 q 321 195 300 204 q 278 212 251 228 z"},"D":{"x_min":0,"x_max":600,"ha":600,"o":"m 59 690 l 302 690 q 417 690 484 626 q 550 562 550 416 l 550 275 q 550 129 482 64 q 414 0 298 0 l 59 0 z m 301 114 q 360 114 390 153 q 419 192 419 276 l 419 409 q 419 497 390 536 q 361 576 301 576 l 190 576 l 190 114 z"},"^":{"x_min":0,"x_max":529,"ha":529,"o":"m 212 695 l 316 695 l 486 271 l 383 271 l 264 575 l 145 271 l 42 271 z"},"0":{"x_min":0,"x_max":512,"ha":512,"o":"m 50 227 l 50 471 q 50 584 102 642 q 155 701 256 701 q 361 701 412 643 q 462 585 462 471 l 462 227 q 462 109 412 49 q 361 -11 256 -11 q 151 -11 100 48 q 50 108 50 227 z m 331 238 l 331 452 q 331 526 316 556 q 300 586 256 586 q 212 586 197 556 q 182 526 182 452 l 182 238 q 182 164 198 134 q 213 103 256 103 q 300 103 316 134 q 331 164 331 238 z"},"F":{"x_min":0,"x_max":527,"ha":527,"o":"m 190 576 l 190 399 l 453 399 l 453 285 l 190 285 l 190 0 l 59 0 l 59 690 l 497 690 l 497 576 z"},"`":{"x_min":0,"x_max":500,"ha":500,"o":"m 127 721 l 264 721 l 372 588 l 265 588 z"},"k":{"x_min":0,"x_max":520,"ha":520,"o":"m 233 218 l 178 154 l 178 0 l 54 0 l 54 690 l 178 690 l 178 304 l 346 520 l 493 520 l 315 313 l 506 0 l 356 0 z"},"u":{"x_min":0,"x_max":520,"ha":520,"o":"m 54 210 l 54 520 l 178 520 l 178 216 q 178 161 194 132 q 211 104 260 104 q 309 104 326 131 q 342 158 342 216 l 342 520 l 466 520 l 466 210 q 466 102 415 48 q 364 -6 260 -6 q 54 -6 54 210 z"},"]":{"x_min":0,"x_max":316,"ha":316,"o":"m 45 31 l 133 31 l 133 623 l 45 623 l 45 737 l 257 737 l 257 -84 l 45 -84 z"},"U":{"x_min":0,"x_max":614,"ha":614,"o":"m 59 228 l 59 690 l 190 690 l 190 232 q 190 173 221 140 q 252 108 306 108 q 360 108 392 140 q 423 173 423 232 l 423 690 l 555 690 l 555 228 q 555 160 522 106 q 490 53 434 24 q 377 -6 306 -6 q 236 -6 180 24 q 123 53 91 106 q 59 160 59 228 z"},"o":{"x_min":0,"x_max":510,"ha":510,"o":"m 45 212 l 45 309 q 45 420 102 473 q 158 526 256 526 q 353 526 409 473 q 465 420 465 309 l 465 212 q 465 100 409 47 q 353 -6 256 -6 q 158 -6 102 47 q 45 100 45 212 z m 342 213 l 342 307 q 342 416 256 416 q 168 416 168 307 l 168 213 q 168 104 256 104 q 342 104 342 213 z"},"N":{"x_min":0,"x_max":634,"ha":634,"o":"m 575 690 l 575 0 l 444 0 l 190 431 l 190 0 l 59 0 l 59 690 l 190 690 l 444 258 l 444 690 z"},"+":{"x_min":0,"x_max":529,"ha":529,"o":"m 208 219 l 48 219 l 48 333 l 208 333 l 208 493 l 322 493 l 322 333 l 481 333 l 481 219 l 322 219 l 322 59 l 208 59 z"},"G":{"x_min":0,"x_max":600,"ha":600,"o":"m 50 267 l 50 425 q 50 700 303 700 q 416 700 483 640 q 550 581 550 476 l 550 469 l 419 469 l 419 476 q 419 523 388 554 q 358 585 302 585 q 239 585 210 546 q 182 507 182 418 l 182 269 q 182 184 212 146 q 243 109 307 109 q 367 109 394 140 q 422 171 422 234 l 422 267 l 300 267 l 300 375 l 550 375 l 550 257 q 550 -8 301 -8 q 50 -8 50 267 z"},"q":{"x_min":0,"x_max":514,"ha":514,"o":"m 337 47 q 294 -6 217 -6 q 142 -6 94 48 q 45 101 45 209 l 45 312 q 45 420 94 473 q 142 526 220 526 q 295 526 339 467 l 339 520 l 460 520 l 460 -156 l 337 -156 z m 337 213 l 337 307 q 337 360 314 388 q 292 416 252 416 q 169 416 169 307 l 169 213 q 169 104 249 104 q 291 104 314 132 q 337 160 337 213 z"},"d":{"x_min":0,"x_max":514,"ha":514,"o":"m 45 209 l 45 312 q 45 420 92 473 q 140 526 216 526 q 294 526 337 467 l 337 690 l 460 690 l 460 0 l 339 0 l 339 48 q 296 -6 217 -6 q 142 -6 94 48 q 45 101 45 209 z m 337 213 l 337 307 q 337 360 314 388 q 292 416 252 416 q 169 416 169 307 l 169 213 q 169 104 249 104 q 291 104 314 132 q 337 160 337 213 z"},"1":{"x_min":0,"x_max":348,"ha":348,"o":"m 152 545 l 36 461 l 36 603 l 152 690 l 283 690 l 283 0 l 152 0 z"},"5":{"x_min":0,"x_max":497,"ha":497,"o":"m 50 159 l 50 174 l 170 174 l 170 168 q 170 136 190 118 q 210 100 245 100 q 283 100 302 124 q 320 149 320 196 l 320 248 q 320 297 302 320 q 283 344 244 344 q 194 344 173 297 l 60 297 l 60 690 l 433 690 l 433 578 l 173 578 l 173 422 q 213 454 271 454 q 358 454 402 402 q 447 351 447 255 l 447 190 q 447 95 394 42 q 340 -11 245 -11 q 155 -11 102 34 q 50 79 50 159 z"}}}
